<svg width="40" height="40" viewBox="0 0 40 40" fill="none" xmlns="http://www.w3.org/2000/svg">
<path d="M20 15.8666C19.1825 15.8666 18.3834 16.1091 17.7037 16.5632C17.024 17.0174 16.4942 17.663 16.1813 18.4182C15.8685 19.1735 15.7866 20.0046 15.9461 20.8064C16.1056 21.6081 16.4993 22.3446 17.0773 22.9227C17.6554 23.5007 18.3919 23.8944 19.1937 24.0539C19.9955 24.2134 20.8265 24.1315 21.5818 23.8187C22.3371 23.5058 22.9826 22.9761 23.4368 22.2963C23.891 21.6166 24.1334 20.8175 24.1334 20C24.1334 19.4572 24.0265 18.9197 23.8187 18.4182C23.611 17.9167 23.3066 17.4611 22.9227 17.0773C22.5389 16.6935 22.0833 16.389 21.5818 16.1813C21.0803 15.9736 20.5428 15.8666 20 15.8666V15.8666ZM36.55 11.7833C36.5413 10.4962 36.3043 9.22093 35.85 8.01665C35.5155 7.13541 34.9979 6.33514 34.3314 5.66862C33.6649 5.00211 32.8646 4.48451 31.9834 4.14998C30.7791 3.69575 29.5038 3.45875 28.2167 3.44998C26.0667 3.33331 25.4334 3.33331 20 3.33331C14.5667 3.33331 13.9334 3.33331 11.7834 3.44998C10.4963 3.45875 9.22099 3.69575 8.01671 4.14998C7.13547 4.48451 6.3352 5.00211 5.66868 5.66862C5.00217 6.33514 4.48457 7.13541 4.15004 8.01665C3.69581 9.22093 3.45881 10.4962 3.45004 11.7833C3.33337 13.9333 3.33337 14.5666 3.33337 20C3.33337 25.4333 3.33337 26.0666 3.45004 28.2166C3.46798 29.5082 3.70466 30.7875 4.15004 32C4.48309 32.8772 5.00026 33.6728 5.66671 34.3333C6.33036 35.0038 7.13236 35.5214 8.01671 35.85C9.22099 36.3042 10.4963 36.5412 11.7834 36.55C13.9334 36.6666 14.5667 36.6666 20 36.6666C25.4334 36.6666 26.0667 36.6666 28.2167 36.55C29.5038 36.5412 30.7791 36.3042 31.9834 35.85C32.8677 35.5214 33.6697 35.0038 34.3334 34.3333C34.9998 33.6728 35.517 32.8772 35.85 32C36.3038 30.7898 36.5408 29.5091 36.55 28.2166C36.6667 26.0666 36.6667 25.4333 36.6667 20C36.6667 14.5666 36.6667 13.9333 36.55 11.7833V11.7833ZM32.3167 25.1166C32.2632 26.1452 32.0437 27.1582 31.6667 28.1166C31.3432 28.9161 30.8622 29.6424 30.2523 30.2522C29.6424 30.8621 28.9162 31.3431 28.1167 31.6666C27.1492 32.0226 26.1305 32.2196 25.1 32.25C23.7834 32.25 23.4334 32.25 20 32.25C16.5667 32.25 16.2167 32.25 14.9 32.25C13.8696 32.2196 12.8509 32.0226 11.8834 31.6666C11.0569 31.3595 10.3105 30.8695 9.70004 30.2333C9.09615 29.6354 8.62978 28.9131 8.33337 28.1166C7.97597 27.1502 7.78439 26.1303 7.76671 25.1C7.76671 23.7833 7.76671 23.4333 7.76671 20C7.76671 16.5666 7.76671 16.2166 7.76671 14.9C7.78439 13.8697 7.97597 12.8498 8.33337 11.8833C8.64051 11.0568 9.1305 10.3104 9.76671 9.69998C10.3673 9.09935 11.0888 8.63347 11.8834 8.33331C12.8509 7.97732 13.8696 7.78033 14.9 7.74998V7.74998C16.2167 7.74998 16.5667 7.74998 20 7.74998C23.4334 7.74998 23.7834 7.74998 25.1 7.74998C26.1305 7.78033 27.1492 7.97732 28.1167 8.33331C28.9432 8.64045 29.6896 9.13044 30.3 9.76665C30.9039 10.3646 31.3703 11.0869 31.6667 11.8833C32.0227 12.8508 32.2197 13.8695 32.25 14.9C32.25 16.2166 32.25 16.5666 32.25 20C32.25 23.4333 32.3667 23.7833 32.3167 25.1V25.1166ZM29.65 12.7166C29.4516 12.1783 29.1387 11.6894 28.733 11.2837C28.3273 10.878 27.8384 10.5651 27.3 10.3666C26.5608 10.1104 25.7823 9.9863 25 9.99998C23.7 9.99998 23.3334 9.99998 20 9.99998C16.6667 9.99998 16.3 9.99998 15 9.99998C14.2138 10.0077 13.4352 10.1544 12.7 10.4333C12.1699 10.6227 11.6862 10.9228 11.281 11.3136C10.8758 11.7045 10.5585 12.177 10.35 12.7C10.108 13.4423 9.98976 14.2193 10 15C10 16.3 10 16.6666 10 20C10 23.3333 10 23.7 10 25C10.0166 25.7853 10.163 26.5625 10.4334 27.3C10.6318 27.8383 10.9447 28.3272 11.3504 28.733C11.7561 29.1387 12.245 29.4515 12.7834 29.65C13.4945 29.9115 14.2428 30.0578 15 30.0833V30.0833C16.3 30.0833 16.6667 30.0833 20 30.0833C23.3334 30.0833 23.7 30.0833 25 30.0833C25.7863 30.0756 26.5649 29.9289 27.3 29.65C27.8384 29.4515 28.3273 29.1387 28.733 28.733C29.1387 28.3272 29.4516 27.8383 29.65 27.3C29.929 26.5649 30.0757 25.7862 30.0834 25C30.0834 23.7 30.0834 23.3333 30.0834 20C30.0834 16.6666 30.0834 16.3 30.0834 15C30.0839 14.213 29.9369 13.4329 29.65 12.7V12.7166ZM20 26.3666C19.1647 26.3666 18.3377 26.2019 17.5661 25.8817C16.7946 25.5615 16.0939 25.0923 15.504 24.5009C14.9141 23.9095 14.4468 23.2075 14.1286 22.4351C13.8105 21.6628 13.6478 20.8353 13.65 20V20C13.65 18.7401 14.0239 17.5085 14.7242 16.4611C15.4245 15.4138 16.4198 14.5978 17.5842 14.1164C18.7485 13.635 20.0295 13.5099 21.2649 13.7569C22.5004 14.0039 23.6348 14.6119 24.5245 15.504C25.4142 16.3961 26.0193 17.532 26.2631 18.7682C26.5068 20.0043 26.3784 21.2849 25.8939 22.448C25.4095 23.611 24.5909 24.6042 23.5417 25.3018C22.4925 25.9994 21.26 26.3699 20 26.3666V26.3666ZM26.6667 14.8833C26.2983 14.8443 25.9573 14.6703 25.7095 14.3949C25.4617 14.1195 25.3246 13.7621 25.3246 13.3916C25.3246 13.0212 25.4617 12.6638 25.7095 12.3884C25.9573 12.1129 26.2983 11.939 26.6667 11.9V11.9C27.0351 11.939 27.3761 12.1129 27.6239 12.3884C27.8717 12.6638 28.0088 13.0212 28.0088 13.3916C28.0088 13.7621 27.8717 14.1195 27.6239 14.3949C27.3761 14.6703 27.0351 14.8443 26.6667 14.8833Z" fill="white"/>
</svg>
