<svg width="164" height="168" viewBox="0 0 164 168" fill="none" xmlns="http://www.w3.org/2000/svg">
<g id="Frame" clip-path="url(#clip0_152_1125)">
<path id="Vector" d="M82 0L96.8265 19.1453L118.492 8.32621L123.534 31.9986L147.756 31.6396L142.015 55.1524L164 65.3234L148.614 84.02L164 102.717L142.015 112.887L147.756 136.4L123.534 136.041L118.492 159.714L96.8265 148.895L82 168.04L67.1735 148.895L45.5079 159.714L40.4658 136.041L16.2442 136.4L21.9851 112.887L0 102.697L15.3856 84L0 65.3134L21.9851 55.1425L16.2442 31.6296L40.4658 31.9886L45.5079 8.31624L67.1735 19.1353L82 0Z" fill="#667F62"/>
<g id="Group">
<g id="Group_2">
<path id="Vector_2" d="M49.0422 117.225L115.567 50.7849" stroke="white" stroke-width="3" stroke-linejoin="round"/>
<path id="Vector_3" d="M82 37.0242C107.979 37.0242 129.045 58.0641 129.045 84.01C129.045 109.956 107.979 130.996 82 130.996C56.0212 130.996 34.9546 109.956 34.9546 84.01H82V37.0242Z" stroke="white" stroke-width="3" stroke-linejoin="round"/>
<path id="Vector_4" d="M82 84H129.045" stroke="white" stroke-width="3" stroke-linejoin="round"/>
<path id="Vector_5" d="M82 84V130.986" stroke="white" stroke-width="3" stroke-linejoin="round"/>
<path id="Vector_6" d="M82 84L115.267 117.225" stroke="white" stroke-width="3" stroke-linejoin="round"/>
<path id="Vector_7" d="M44.719 84C44.719 104.561 61.4125 121.234 81.9999 121.234C102.587 121.234 119.281 104.561 119.281 84C119.281 63.4388 102.587 46.7664 81.9999 46.7664" stroke="white" stroke-width="3" stroke-linejoin="round"/>
<path id="Vector_8" d="M107.599 77.8476C109.546 77.8476 111.124 76.2717 111.124 74.3277C111.124 72.3837 109.546 70.8077 107.599 70.8077C105.653 70.8077 104.075 72.3837 104.075 74.3277C104.075 76.2717 105.653 77.8476 107.599 77.8476Z" stroke="white" stroke-width="3" stroke-linejoin="round"/>
<path id="Vector_9" d="M96.6367 97.2023C98.5832 97.2023 100.161 95.6264 100.161 93.6824C100.161 91.7383 98.5832 90.1624 96.6367 90.1624C94.6902 90.1624 93.1123 91.7383 93.1123 93.6824C93.1123 95.6264 94.6902 97.2023 96.6367 97.2023Z" stroke="white" stroke-width="3" stroke-linejoin="round"/>
<path id="Vector_10" d="M85.5244 115.36C87.4709 115.36 89.0488 113.785 89.0488 111.841C89.0488 109.896 87.4709 108.321 85.5244 108.321C83.5779 108.321 82 109.896 82 111.841C82 113.785 83.5779 115.36 85.5244 115.36Z" stroke="white" stroke-width="3" stroke-linejoin="round"/>
<path id="Vector_11" d="M72.2754 102.477C74.2219 102.477 75.7998 100.901 75.7998 98.9573C75.7998 97.0132 74.2219 95.4373 72.2754 95.4373C70.3289 95.4373 68.751 97.0132 68.751 98.9573C68.751 100.901 70.3289 102.477 72.2754 102.477Z" stroke="white" stroke-width="3" stroke-linejoin="round"/>
<path id="Vector_12" d="M85.5244 59.6795C87.4709 59.6795 89.0488 58.1035 89.0488 56.1595C89.0488 54.2155 87.4709 52.6396 85.5244 52.6396C83.5779 52.6396 82 54.2155 82 56.1595C82 58.1035 83.5779 59.6795 85.5244 59.6795Z" stroke="white" stroke-width="3" stroke-linejoin="round"/>
<path id="Vector_13" d="M55.572 91.0399C57.5185 91.0399 59.0964 89.464 59.0964 87.5199C59.0964 85.5759 57.5185 84 55.572 84C53.6255 84 52.0476 85.5759 52.0476 87.5199C52.0476 89.464 53.6255 91.0399 55.572 91.0399Z" stroke="white" stroke-width="3" stroke-linejoin="round"/>
<path id="Vector_14" d="M89.9175 65.1937L94.0909 61.0256" stroke="white" stroke-width="3" stroke-linejoin="round"/>
<path id="Vector_15" d="M107.51 97.2921L111.683 93.124" stroke="white" stroke-width="3" stroke-linejoin="round"/>
<path id="Vector_16" d="M73.9329 113.496L69.7595 109.328" stroke="white" stroke-width="3" stroke-linejoin="round"/>
<path id="Vector_17" d="M56.9197 100.543L59.0962 97.3718" stroke="white" stroke-width="3" stroke-linejoin="round"/>
<path id="Vector_18" d="M87.9604 103.714L90.137 100.543" stroke="white" stroke-width="3" stroke-linejoin="round"/>
<path id="Vector_19" d="M96.1377 75.8034L99.3127 77.9872" stroke="white" stroke-width="3" stroke-linejoin="round"/>
</g>
<g id="Group_3">
<path id="Vector_20" d="M82.0454 71.3462H35C35 58.3732 40.2617 46.6268 48.7782 38.1211L82.0454 71.3462Z" stroke="white" stroke-width="3" stroke-linejoin="round"/>
<path id="Vector_21" d="M55.6871 45.0114C48.9378 51.7522 44.7644 61.0556 44.7644 71.3462" stroke="white" stroke-width="3" stroke-linejoin="round"/>
<path id="Vector_22" d="M54.1697 71.3462C56.1162 71.3462 57.6941 69.7702 57.6941 67.8262C57.6941 65.8822 56.1162 64.3063 54.1697 64.3063C52.2232 64.3063 50.6453 65.8822 50.6453 67.8262C50.6453 69.7702 52.2232 71.3462 54.1697 71.3462Z" stroke="white" stroke-width="3" stroke-linejoin="round"/>
<path id="Vector_23" d="M59.3415 57.765L56.1665 55.5912" stroke="white" stroke-width="3" stroke-linejoin="round"/>
</g>
</g>
</g>
<defs>
<clipPath id="clip0_152_1125">
<rect width="164" height="168" fill="white"/>
</clipPath>
</defs>
</svg>
