<svg width="168" height="168" viewBox="0 0 168 168" fill="none" xmlns="http://www.w3.org/2000/svg">
<g id="Frame" clip-path="url(#clip0_152_1004)">
<path id="Vector" d="M84.005 168.01C130.4 168.01 168.01 130.4 168.01 84.005C168.01 37.6103 130.4 0 84.005 0C37.6103 0 0 37.6103 0 84.005C0 130.4 37.6103 168.01 84.005 168.01Z" fill="#FEC62D"/>
<g id="Group">
<path id="Vector_2" d="M103 43.0001L21.4248 92.844C17.9968 94.9266 19.6111 100.208 23.6171 100.009C31.4296 99.6202 42.8595 99.2913 58.0163 99.2913" stroke="#FA442C" stroke-width="3" stroke-linecap="round" stroke-linejoin="round"/>
<path id="Vector_3" d="M28.0215 88.838H49.526C52.6151 88.838 55.3555 90.831 56.3121 93.7807L63.0385 114.608C64.1347 118.085 67.9014 119.989 71.3792 118.783C74.7374 117.607 76.4115 113.83 75.3453 110.442L72.4853 102.141C70.5521 96.0128 73.6512 89.426 79.6103 87.0244C86.2171 84.3637 93.7008 87.8515 95.9031 94.6377L105.729 124.772C106.825 128.25 110.592 130.153 114.069 128.947C117.547 127.741 119.102 123.995 118.035 120.606L111.04 98.4642C110.322 96.1922 110.442 93.691 111.578 91.5983C112.634 89.6552 114.617 87.8614 118.364 87.8614C123.725 87.8614 125.679 92.4055 125.679 92.4055" stroke="#FA442C" stroke-width="3" stroke-linecap="round" stroke-linejoin="round"/>
<path id="Vector_4" d="M111.04 98.4742L109.416 92.6746C106.885 83.6562 113.531 74.6279 122.899 74.4585C123.048 74.4585 123.197 74.4585 123.347 74.4585C138.364 74.4187 138.474 87.5725 138.484 91.7877C138.494 96.0029 137.049 103.805 128.29 103.825C119.52 103.845 112.276 102.331 112.276 102.331" stroke="#FA442C" stroke-width="3" stroke-linecap="round" stroke-linejoin="round"/>
<path id="Vector_5" d="M114.309 77.5377L103.148 43.3478C101.494 38.2955 104.254 32.8546 109.316 31.2104C114.368 29.5562 119.809 32.3165 121.453 37.3787L135.753 80.1485" stroke="#FA442C" stroke-width="3.28" stroke-linecap="round" stroke-linejoin="round"/>
<path id="Vector_6" d="M107.901 57.8768C106.247 52.8245 109.007 47.3836 114.069 45.7394C119.122 44.0852 124.562 46.8455 126.207 51.9077" stroke="#FA442C" stroke-width="3.28" stroke-linecap="round" stroke-linejoin="round"/>
<path id="Vector_7" d="M112.136 70.9309C110.482 65.8787 113.242 60.4378 118.304 58.7935C123.357 57.1393 128.798 59.8997 130.442 64.9619" stroke="#FA442C" stroke-width="3.28" stroke-linecap="round" stroke-linejoin="round"/>
<path id="Vector_8" d="M72.0071 100.009C72.0071 100.009 89.0173 100.298 97.9958 101.095" stroke="#FA442C" stroke-width="3.28" stroke-linecap="round" stroke-linejoin="round"/>
<path id="Vector_9" d="M98.461 77.3818C102.615 76.2577 105.574 73.8349 105.07 71.9702C104.565 70.1055 100.788 69.5051 96.634 70.6292C92.4796 71.7532 89.5208 74.1761 90.0253 76.0407C90.5299 77.9054 94.3067 78.5058 98.461 77.3818Z" stroke="#FA442C" stroke-width="3.28" stroke-linecap="round" stroke-linejoin="round"/>
<path id="Vector_10" d="M75.2401 80.6231C79.3945 79.499 82.3532 77.0762 81.8487 75.2115C81.3442 73.3468 77.5674 72.7464 73.413 73.8704C69.2587 74.9945 66.2999 77.4173 66.8044 79.282C67.3089 81.1467 71.0857 81.7471 75.2401 80.6231Z" stroke="#FA442C" stroke-width="3.28" stroke-linecap="round" stroke-linejoin="round"/>
<path id="Vector_11" d="M87.2735 62.4208C94.9067 58.0163 99.3511 51.1504 98.0457 46.3074L68.5393 64.2344C72.3559 67.194 80.0589 66.5961 87.2735 62.4307V62.4208Z" stroke="#FA442C" stroke-width="3" stroke-linecap="round" stroke-linejoin="round"/>
</g>
</g>
<defs>
<clipPath id="clip0_152_1004">
<rect width="168" height="168" fill="white"/>
</clipPath>
</defs>
</svg>
