<svg width="168" height="168" viewBox="0 0 168 168" fill="none" xmlns="http://www.w3.org/2000/svg">
<g id="Frame" clip-path="url(#clip0_119_13)">
<path id="Vector" d="M84.005 168.01C130.4 168.01 168.01 130.4 168.01 84.005C168.01 37.6103 130.4 0 84.005 0C37.6103 0 0 37.6103 0 84.005C0 130.4 37.6103 168.01 84.005 168.01Z" fill="#FDBFD9"/>
<g id="Group">
<path id="Vector_2" d="M59.2122 114.269L70.064 109.745V122.35C70.064 124.513 71.8179 126.277 73.9903 126.277C76.1626 126.277 77.9165 124.523 77.9165 122.35V106.476L89.5556 101.623" stroke="#2A345E" stroke-width="3" stroke-linecap="round" stroke-linejoin="round"/>
<path id="Vector_3" d="M74.0002 37.1994L34.1401 132.863L70.0739 117.896" stroke="#2A345E" stroke-width="3" stroke-linecap="round" stroke-linejoin="round"/>
<path id="Vector_4" d="M77.9165 114.627L129.804 93.0034" stroke="#2A345E" stroke-width="3" stroke-linecap="round" stroke-linejoin="round"/>
<path id="Vector_5" d="M72.1466 101.264H68.5791V104.832H72.1466V101.264Z" fill="#2A345E"/>
<path id="Vector_6" d="M73.9305 77.8865H70.363V81.4539H73.9305V77.8865Z" fill="#2A345E"/>
<path id="Vector_7" d="M81.1949 70.6619H77.6274V74.2293H81.1949V70.6619Z" fill="#2A345E"/>
<path id="Vector_8" d="M81.1949 59.7801H77.6274V63.3476H81.1949V59.7801Z" fill="#2A345E"/>
<path id="Vector_9" d="M95.5843 86.7255H92.0168V90.2929H95.5843V86.7255Z" fill="#2A345E"/>
<path id="Vector_10" d="M113.651 77.8865H110.083V81.4539H113.651V77.8865Z" fill="#2A345E"/>
<path id="Vector_11" d="M120.517 70.6619H116.949V74.2293H120.517V70.6619Z" fill="#2A345E"/>
<path id="Vector_12" d="M120.517 84.9417H116.949V88.5092H120.517V84.9417Z" fill="#2A345E"/>
<path id="Vector_13" d="M70.3629 67.0944H66.7954V70.6619H70.3629V67.0944Z" fill="#2A345E"/>
<path id="Vector_14" d="M54.1698 106.546H50.6023V110.113H54.1698V106.546Z" fill="#2A345E"/>
<path id="Vector_15" d="M50.6024 117.218H47.0349V120.786H50.6024V117.218Z" fill="#2A345E"/>
<path id="Vector_16" d="M87.0542 90.2929C87.0542 87.0543 84.4234 84.4235 81.1848 84.4235C77.9462 84.4235 75.3154 87.0543 75.3154 90.2929C75.3154 93.5315 77.9462 96.1623 81.1848 96.1623C84.4234 96.1623 87.0542 93.5315 87.0542 90.2929Z" stroke="#2A345E" stroke-width="3" stroke-linecap="round" stroke-linejoin="round"/>
<path id="Vector_17" d="M87.0542 49.267C87.0542 46.0284 84.4234 43.3976 81.1848 43.3976C77.9462 43.3976 75.3154 46.0284 75.3154 49.267C75.3154 52.5057 77.9462 55.1364 81.1848 55.1364C84.4234 55.1364 87.0542 52.5057 87.0542 49.267Z" stroke="#2A345E" stroke-width="3.28" stroke-linecap="round" stroke-linejoin="round"/>
<path id="Vector_18" d="M87.1042 67.0944C87.1042 73.7012 92.4654 79.0623 99.0722 79.0623C105.679 79.0623 111.04 73.7012 111.04 67.0944C111.04 60.4876 105.679 55.1264 99.0722 55.1264" stroke="#2A345E" stroke-width="3" stroke-linecap="round" stroke-linejoin="round"/>
<path id="Vector_19" d="M48.4897 98.4343C52.2764 100.088 56.8305 99.7198 60.388 97.089C65.6993 93.1628 66.8254 85.6691 62.8991 80.3578" stroke="#2A345E" stroke-width="3" stroke-linecap="round" stroke-linejoin="round"/>
<path id="Vector_20" d="M118.673 97.6372C117.298 94.1693 114.319 91.3991 110.422 90.4324C104.005 88.848 97.5175 92.7543 95.9331 99.1718" stroke="#2A345E" stroke-width="3" stroke-linecap="round" stroke-linejoin="round"/>
<path id="Vector_21" d="M131.917 93.7109C130.741 92.535 129.984 90.9406 129.884 89.1469C129.864 88.7882 128.499 68.8084 113.352 53.6516C97.4478 37.7475 78.295 37.1296 78.1057 37.1296C74.2692 37.0399 71.2 33.8711 71.2697 30.0345C71.3395 26.198 74.4785 23.1388 78.3249 23.1886C79.3314 23.1986 103.168 23.7466 123.217 43.7962C142.34 62.9191 143.765 87.4031 143.815 88.4394C144.004 92.2859 141.045 95.5644 137.198 95.7537C135.145 95.8534 133.262 95.0662 131.917 93.7209V93.7109Z" stroke="#2A345E" stroke-width="3" stroke-linecap="round" stroke-linejoin="round"/>
</g>
</g>
<defs>
<clipPath id="clip0_119_13">
<rect width="168" height="168" fill="white"/>
</clipPath>
</defs>
</svg>
