<svg width="40" height="40" viewBox="0 0 40 40" fill="none" xmlns="http://www.w3.org/2000/svg">
<path d="M36.6667 9.66671C35.4139 10.2102 34.0891 10.5695 32.7334 10.7334C34.1637 9.87891 35.2355 8.53468 35.75 6.95004C34.406 7.75015 32.9346 8.31387 31.4 8.61671C30.3743 7.50433 29.0083 6.76387 27.5164 6.51146C26.0245 6.25906 24.4909 6.50897 23.1564 7.22203C21.8218 7.93508 20.7616 9.07093 20.1421 10.4514C19.5226 11.8319 19.3789 13.379 19.7334 14.85C17.0158 14.7126 14.3574 14.005 11.9311 12.7731C9.50482 11.5413 7.36478 9.81287 5.65004 7.70004C5.0486 8.75032 4.73257 9.93975 4.73337 11.15C4.73124 12.274 5.00707 13.3811 5.5363 14.3727C6.06553 15.3642 6.83174 16.2096 7.76671 16.8334C6.68 16.8038 5.61652 16.5122 4.66671 15.9834V16.0667C4.67485 17.6415 5.2267 19.1652 6.2289 20.38C7.2311 21.5948 8.62213 22.4261 10.1667 22.7334C9.57213 22.9143 8.95483 23.0097 8.33337 23.0167C7.90319 23.0117 7.47408 22.9727 7.05004 22.9C7.48989 24.2547 8.34108 25.4386 9.48517 26.287C10.6293 27.1353 12.0093 27.606 13.4334 27.6334C11.0287 29.5255 8.05985 30.5581 5.00004 30.5667C4.44293 30.5685 3.88627 30.5351 3.33337 30.4667C6.45742 32.4838 10.0981 33.5546 13.8167 33.55C16.3829 33.5767 18.9286 33.0917 21.3052 32.1235C23.6819 31.1553 25.8417 29.7232 27.6587 27.9109C29.4757 26.0986 30.9133 23.9424 31.8876 21.5682C32.862 19.1941 33.3534 16.6496 33.3334 14.0834C33.3334 13.8 33.3334 13.5 33.3334 13.2C34.6412 12.2247 35.7692 11.0291 36.6667 9.66671V9.66671Z" fill="white"/>
</svg>
