<svg xmlns="http://www.w3.org/2000/svg" width="189" height="40" fill="none"><g clip-path="url(#a)"><mask id="b" width="189" height="41" x="0" y="0" maskUnits="userSpaceOnUse" style="mask-type:luminance"><path fill="#fff" d="M188.309.224H0v40h188.309v-40Z"/></mask><g mask="url(#b)"><mask id="c" width="189" height="123" x="0" y="-35" maskUnits="userSpaceOnUse" style="mask-type:luminance"><path fill="#fff" d="M188.309-34.545H0V87.303h188.309V-34.546Z"/></mask><g mask="url(#c)"><mask id="d" width="189" height="123" x="0" y="-35" maskUnits="userSpaceOnUse" style="mask-type:luminance"><path fill="#fff" d="M188.309-34.545H0V87.303h188.309V-34.546Z"/></mask><g mask="url(#d)"><path fill="#fff" d="M49.74 6.94h6.709L59.55 33.2h-5.436l-.509-7h-2.588l-.69 7H45.55l4.194-26.26h-.006Zm3.605 15.393-.581-8.024c-.073-.945-.073-2.151-.11-3.612h-.181c-.11 2.079-.182 3.248-.218 3.576l-.837 8.06h1.934-.007ZM65.855 6.358c4.666 0 6.127 2.187 6.127 6.781v2.916h-5.218v-4.667c0-.873-.218-1.279-.91-1.279-.654 0-.872.364-.872 1.279v17.145c0 .873.218 1.28.873 1.28.654 0 .909-.364.909-1.28v-5.29h5.218v3.793c0 4.63-1.497 6.746-6.127 6.746s-6.091-2.152-6.091-6.746V13.14c0-4.63 1.497-6.781 6.09-6.781ZM75.667 10.66h-3.352V6.94h11.958v3.72h-3.388V33.2h-5.218V10.66ZM90.479 6.94h-5.255V33.2h5.255V6.94ZM97.77 6.358c4.666 0 6.127 2.187 6.127 6.781V27c0 4.63-1.497 6.782-6.127 6.782S91.642 31.63 91.642 27V13.14c0-4.63 1.534-6.782 6.128-6.782Zm-.873 22.175c0 .873.218 1.28.873 1.28.654 0 .909-.364.909-1.28V11.388c0-.873-.218-1.279-.91-1.279-.618 0-.872.4-.872 1.279v17.145ZM104.885 6.94h7.188l1.86 11.127c.364 2.151.582 4.666.728 7.587h.218c-.182-4.194-.255-6.818-.255-7.842l-.036-10.867h4.121v26.261h-6.164l-2.697-14.26c-.109-.619-.436-2.698-.872-6.237h-.146c.146 2.188.218 3.83.218 4.885v15.612h-4.157V6.946l-.006-.007ZM124.812 6.94H132l1.861 11.127c.363 2.151.581 4.666.727 7.587h.218c-.182-4.194-.254-6.818-.254-7.842l-.037-10.867h4.121v26.261h-6.163l-2.697-14.26c-.109-.619-.437-2.698-.873-6.237h-.145c.145 2.188.218 3.83.218 4.885v15.612h-4.158V6.946l-.006-.007ZM139.952 6.94h9.775v3.648H145.2v6.054h4.418v3.794H145.2v8.788h4.527V33.2h-9.775V6.94ZM150.345 6.94h5.291l.619 10.03c.145 2.297.218 4.775.29 7.442h.182c.218-2.879.4-4.848.509-5.909l1.388-11.564h5.546l1.097 12.4c.036.582.181 2.26.4 5.073h.181c.073-2.224.182-4.776.4-7.624l.8-9.849h4.413l-2.843 26.26h-6.054l-1.316-14.078c-.109-1.206-.181-2.624-.254-4.303h-.182l-1.86 18.382h-5.982l-2.625-26.26ZM177.988 6.358c3.939 0 6.091 1.97 6.091 5.4v4.303h-5.218v-4.667c0-.873-.182-1.279-.873-1.279-.655 0-.909.364-.909 1.279v2.333c0 .764.182 1.315.654 1.86l5.037 5.546c1.315 1.425 1.315 2.697 1.315 4.34v3.066c0 3.358-2.188 5.255-6.127 5.255-3.94 0-6.091-1.933-6.091-5.618v-4.921h5.218v5.29c0 .91.254 1.28.909 1.28.654 0 .873-.4.873-1.28v-2.77c0-.872-.328-1.46-.909-2.114l-4.74-5.364c-1.279-1.46-1.351-2.624-1.351-3.867v-2.77c0-3.248 2.151-5.29 6.127-5.29"/><path fill="#0058F6" d="M23.479 37.382c-3.958.6-7.618-.424-10.788-2.158-1.66-1.054-3.273-2.194-5-4.733-2.746-4.037-3.133-10.655-1.473-15.606 1.164-3.794 3.77-7.291 7.267-9.776C15.703 3.661 18 2.982 21.073 2.958c1.72-.013 3.32.424 4.842.981 1.879.812 3.758 2.291 4.843 4.116 1.194 1.854 1.612 4.054 1.69 6.345l-.2-.06-5.181-2.364c-.855-.376-1.722-.74-2.564-1.158.17-1.157.321-2.036-.079-3.509-.182-.673-.697-1.212-1.363-1.673-1.103-.757-2.794-.8-3.988-.315-3.164 1.206-4.546 4.527-5.091 7.437-.327 1.884-.23 3.89-.182 5.896.018.03-.03.043.012.03 2.855-3.872 8.043-5 12.649-3.69.684.255 1.381.515 2.048.842.576.255 1.133.558 1.667.897a11.313 11.313 0 0 1 3.806-.66c1.909 0 3.709.472 5.29 1.309C37.953 8.448 30.256 1.6 20.953 1.6 10.721 1.6 2.43 9.89 2.43 20.121c0 10.23 8.291 18.521 18.521 18.521 2.595 0 5.061-.533 7.303-1.497-.387-.23-.757-.478-1.115-.751a13.24 13.24 0 0 1-3.66.994"/><path fill="#0058F6" d="M25.31 19.982c-.516-.946-1.322-1.855-2.328-2.382-1.649-.921-4.037-.679-5.497.497-2.933 2.382-3.121 6.194-2.921 9.764.37 2.697 1.242 5.739 4.066 6.987.964.546 2.473.48 3.552.091.86-.309 1.606-.86 2.218-1.533a11.246 11.246 0 0 1-1.74-6.03c0-3.637 1.716-6.873 4.382-8.946a9.215 9.215 0 0 0-1.739 1.552"/><path fill="#fff" d="M20.951 38.63c-10.23 0-18.52-8.29-18.52-18.521 0-10.23 8.29-18.521 18.52-18.521 9.297 0 17 6.854 18.322 15.782.43.224.842.478 1.236.757C39.521 8.187 31.14.424 20.94.424 10.08.424 1.273 9.23 1.273 20.091c0 10.86 8.806 19.666 19.666 19.666 3.085 0 6-.709 8.6-1.975a10.55 10.55 0 0 1-1.278-.649 18.445 18.445 0 0 1-7.303 1.497"/><path fill="#fff" d="M24.994 34.242a9.897 9.897 0 0 1-.576-.83c-.612.673-1.357 1.23-2.218 1.533-1.085.388-2.594.455-3.552-.09-2.824-1.249-3.697-4.291-4.066-6.988-.2-3.57-.012-7.382 2.921-9.764 1.46-1.176 3.849-1.418 5.497-.497 1.006.533 1.812 1.442 2.327 2.382l.043.079a11.286 11.286 0 0 1 4.824-3.34 12.29 12.29 0 0 0-1.667-.897c-.666-.333-1.363-.588-2.048-.842-4.612-1.31-9.794-.182-12.649 3.69-.048.013 0 0-.012-.03-.048-2.006-.14-4.012.182-5.896.546-2.91 1.927-6.23 5.09-7.437 1.195-.485 2.886-.442 3.989.315.672.46 1.182.994 1.363 1.673.394 1.473.249 2.352.08 3.51.836.423 1.708.78 2.563 1.157l5.182 2.363.2.06c-.08-2.29-.497-4.49-1.691-6.345-1.085-1.824-2.964-3.297-4.843-4.115-1.52-.557-3.12-.994-4.842-.982-3.073.025-5.37.71-7.588 2.152-3.49 2.485-6.097 5.982-7.267 9.776-1.66 4.957-1.266 11.57 1.473 15.606 1.727 2.54 3.34 3.679 5 4.733 3.164 1.733 6.83 2.758 10.788 2.158 1.29-.158 2.51-.497 3.66-.994a11.628 11.628 0 0 1-2.15-2.146"/><path fill="#202033" d="M45.303 27.315c.036 6.249-5.006 11.346-11.255 11.376-6.248.036-11.345-5.006-11.375-11.255-.037-6.248 5.006-11.345 11.254-11.375 6.249-.03 11.346 5.006 11.376 11.254Z"/><path fill="#fff" d="m43.74 27.721-1.77.012a1.393 1.393 0 0 1-2.727-.382c0-.77.612-1.393 1.381-1.393.63 0 1.164.412 1.34.981l1.77-.012a3.12 3.12 0 0 0-3.116-2.709 3.127 3.127 0 1 0 .037 6.255 3.123 3.123 0 0 0 3.084-2.746M27.315 24.285a3.127 3.127 0 1 0 .037 6.254c.909 0 1.387-.594 1.387-.594v.54l1.74-.012-.018-3.073a3.127 3.127 0 0 0-3.146-3.11m.024 4.51c-.77 0-1.393-.612-1.4-1.382 0-.77.613-1.394 1.382-1.4.77 0 1.394.612 1.394 1.382 0 .77-.612 1.394-1.382 1.4"/><path fill="#fff" d="M33.97 24.248c-.843 0-1.388.467-1.388.467l-.012-1.982-1.74.012.025 4.655a3.127 3.127 0 1 0 3.109-3.145m.03 4.509c-.77 0-1.394-.613-1.4-1.382 0-.77.612-1.394 1.382-1.394.77 0 1.394.612 1.4 1.382 0 .77-.612 1.394-1.382 1.4"/></g></g></g></g><defs><clipPath id="a"><path fill="#fff" d="M0 0h188.485v40H0z"/></clipPath></defs></svg>