<svg width="305" height="25" viewBox="0 0 305 25" fill="none" xmlns="http://www.w3.org/2000/svg">
<path d="M5.58659 20.9218C6.00559 17.905 6.50838 14.8045 6.56425 7.6257C3.68715 9.60894 1.14525 11.7318 1.14525 13.6592C1.14525 16.3408 3.21229 19.1341 5.58659 20.9218ZM12.4302 3.77095C11.0056 4.72067 9.32961 5.81005 7.7095 6.81564C7.7095 14.9162 7.03911 18.4078 6.67598 21.648C8.10056 22.5698 9.52514 23.2402 10.9777 23.6033C11.3966 20.0838 12.2626 11.8156 12.4302 3.77095ZM17.7095 9.80447L13.0726 13.7151C12.7933 17.4022 12.4581 20.6425 12.095 23.8547C12.3743 23.9106 12.7095 23.9385 12.9888 23.9944C16.3129 22.7654 20.6145 20.1397 22.7933 18.1285C23.0447 17.1508 23.1006 16.3966 23.1006 15.5866C23.1006 12.7095 20.838 10.4749 17.7095 9.80447ZM18.6313 9.02234C21.8715 9.94413 24.2458 12.4581 24.2458 15.5866C24.2458 16.4804 24.0223 17.3743 23.6872 18.7151C21.648 20.7821 16.8715 23.7709 13.3799 24.9441C8.10056 24.9721 0 19.8603 0 13.6592C0 9.9162 7.5419 5.75419 12.4302 2.5419V0.642456H13.5754V2.4581C15.1955 3.15642 17.8771 4.35754 18.771 4.63687C19.6648 4.94413 20.3352 5.11173 21.0894 5.11173C21.4804 5.11173 21.8994 4.88827 22.4302 4.46927L23.8827 3.24022L24.4972 4.13408L22.905 5.41899L20.6704 5.94972C20.0559 6.00558 19.2737 5.92178 18.3799 5.55866C17.5698 5.25139 15.1676 4.18994 13.5754 3.49162C13.5475 6.42458 13.4078 9.4134 13.1844 12.2905L17.2346 8.82681L18.6313 9.02234Z" fill="#0D0259"/>
<path d="M37.5419 1.78772C42.5419 1.78772 50.0559 6.89945 50.0559 13.1006C50.0559 19.7207 44.6089 22.4022 40.1117 24.9721C34.6089 24.8045 26.7039 19.9441 26.7039 13.6592C26.7039 7.54191 31.8156 4.66481 37.5419 1.78772ZM31.5922 20.4469C31.9832 17.2067 32.4581 13.1285 32.514 5.7542C29.7486 7.68157 27.8492 10.0559 27.8492 13.6313C27.8492 16.257 29.4413 18.6313 31.5922 20.4469ZM33.6592 5.00001C33.6313 13.4358 33.0168 18.0447 32.6816 21.257C34.0223 22.1788 35.5028 22.8771 36.9274 23.324C37.3464 19.2738 38.1564 10.5866 38.2402 2.87711C38.0447 2.84917 37.8212 2.84917 37.6257 2.84917C36.2291 3.5475 34.8883 4.24582 33.6592 5.00001ZM48.6872 11.3129L38.6872 17.067C38.4637 19.4972 38.1844 22.0391 38.0168 23.6313C38.6592 23.771 39.2179 23.8548 39.8045 23.8827C43.8548 21.5643 48.9385 19.162 48.9385 13.1006C48.9106 12.514 48.8268 11.9274 48.6872 11.3129ZM48.352 10.3073C48.1006 9.60895 47.7095 8.93856 47.2626 8.35197L38.9665 13.1285C38.8827 14.162 38.8268 15.0559 38.771 15.8101L48.352 10.3073ZM46.648 7.51398C44.7486 5.25141 41.8994 3.60336 39.3575 3.0447C39.3575 6.03353 39.2179 8.93856 39.0782 11.8715L46.648 7.51398Z" fill="#0D0259"/>
<path d="M63.2961 1.78772C68.2961 1.78772 75.8101 6.89945 75.8101 13.1006C75.8101 19.7207 70.3631 22.4022 65.8659 24.9721C60.3631 24.8045 52.4581 19.9441 52.4581 13.6592C52.4581 7.54191 57.5698 4.66481 63.2961 1.78772ZM57.3464 20.4469C57.7374 17.2067 58.2123 13.1285 58.2682 5.7542C55.5028 7.68157 53.6034 10.0559 53.6034 13.6313C53.6034 16.257 55.1955 18.6313 57.3464 20.4469ZM59.4134 5.00001C59.3855 13.4358 58.771 18.0447 58.4358 21.257C59.7765 22.1788 61.257 22.8771 62.6816 23.324C63.1006 19.2738 63.9106 10.5866 63.9944 2.87711C63.7989 2.84917 63.5754 2.84917 63.3799 2.84917C61.9832 3.5475 60.6425 4.24582 59.4134 5.00001ZM74.4693 11.3129L64.4693 17.067C64.2458 19.4972 63.9665 22.0391 63.7989 23.6313C64.4413 23.771 65 23.8548 65.5866 23.8827C69.6369 21.5643 74.7207 19.162 74.7207 13.1006C74.6927 12.514 74.581 11.9274 74.4693 11.3129ZM74.1061 10.3073C73.8548 9.60895 73.4637 8.93856 73.0168 8.35197L64.7207 13.1285C64.6369 14.162 64.581 15.0559 64.5251 15.8101L74.1061 10.3073ZM72.4022 7.51398C70.5028 5.25141 67.6536 3.60336 65.1117 3.0447C65.1117 6.03353 64.9721 8.93856 64.8324 11.8715L72.4022 7.51398Z" fill="#0D0259"/>
<path d="M79.8045 0.782123C78.6034 1.59218 77.8492 2.17877 77.8492 2.96089C77.8492 3.65922 78.4916 3.74302 79.3296 3.74302H89.162C96.2849 3.74302 100.642 8.04469 100.642 13.6592C100.642 15.9777 100.168 17.6536 99.7207 18.9944C96.9274 21.3128 93.8827 23.0447 89.6648 24.9721C87.1508 24.0782 82.6816 22.8212 79.6089 22.8212C78.6313 22.8212 77.9888 23.2961 77.3184 24.3017L76.4525 23.5754C77.8212 21.1173 82.0112 17.8492 84.162 16.3966C81.1453 16.0894 78.8268 14.581 78.8268 12.067C78.8268 8.96648 82.067 6.39665 84.3017 4.77654H79.3296C77.2905 4.77654 76.7039 4.05028 76.7039 3.04469C76.7039 1.78771 77.6816 1.06145 79.1341 0L79.8045 0.782123ZM85.3073 22.6257V16.7598C83.6034 17.905 80.9777 20.0279 79.162 21.8715C79.3296 21.8436 79.4693 21.8436 79.6369 21.8436C81.3687 21.8436 83.324 22.1788 85.3073 22.6257ZM85.3073 15.5307V5.2514C83.1844 6.75978 80.0279 9.10614 80.0279 12.067C80 14.2458 82.3743 15.4749 85.3073 15.5307ZM88.9106 23.6592V4.77654H86.4525V22.905C87.3184 23.1564 88.1844 23.4358 88.9106 23.6592ZM90.1676 23.6034C93.6871 21.9832 96.4805 20.2793 98.7989 18.352C99.1899 17.1788 99.4972 15.6983 99.4972 13.6872C99.4972 8.77095 95.8659 5.13966 90.0559 4.80447V23.6592L90.1676 23.6034Z" fill="#0D0259"/>
<path d="M107.587 20.9218C108.006 17.905 108.508 14.8045 108.564 7.6257C105.687 9.60894 103.145 11.7318 103.145 13.6592C103.145 16.3408 105.212 19.1341 107.587 20.9218ZM114.43 3.77095C113.006 4.72067 111.33 5.81005 109.709 6.81564C109.709 14.9162 109.039 18.4078 108.676 21.648C110.101 22.5698 111.525 23.2402 112.978 23.6033C113.397 20.0838 114.263 11.8156 114.43 3.77095ZM119.709 9.80447L115.073 13.7151C114.793 17.4022 114.458 20.6425 114.095 23.8547C114.374 23.9106 114.709 23.9385 114.989 23.9944C118.313 22.7654 122.615 20.1397 124.793 18.1285C125.045 17.1508 125.101 16.3966 125.101 15.5866C125.101 12.7095 122.838 10.4749 119.709 9.80447ZM120.631 9.02234C123.872 9.94413 126.246 12.4581 126.246 15.5866C126.246 16.4804 126.022 17.3743 125.687 18.7151C123.648 20.7821 118.872 23.7709 115.38 24.9441C110.101 24.9721 102 19.8603 102 13.6592C102 9.9162 109.542 5.75419 114.43 2.5419V0.642456H115.575V2.4581C117.196 3.15642 119.877 4.35754 120.771 4.63687C121.665 4.94413 122.335 5.11173 123.089 5.11173C123.48 5.11173 123.899 4.88827 124.43 4.46927L125.883 3.24022L126.497 4.13408L124.905 5.41899L122.67 5.94972C122.056 6.00558 121.274 5.92178 120.38 5.55866C119.57 5.25139 117.168 4.18994 115.575 3.49162C115.547 6.42458 115.408 9.4134 115.184 12.2905L119.235 8.82681L120.631 9.02234Z" fill="#0D0259"/>
<path d="M139.542 1.78772C144.542 1.78772 152.056 6.89945 152.056 13.1006C152.056 19.7207 146.609 22.4022 142.112 24.9721C136.609 24.8045 128.704 19.9441 128.704 13.6592C128.704 7.54191 133.816 4.66481 139.542 1.78772ZM133.592 20.4469C133.983 17.2067 134.458 13.1285 134.514 5.7542C131.749 7.68157 129.849 10.0559 129.849 13.6313C129.849 16.257 131.441 18.6313 133.592 20.4469ZM135.659 5.00001C135.631 13.4358 135.017 18.0447 134.682 21.257C136.022 22.1788 137.503 22.8771 138.927 23.324C139.346 19.2738 140.156 10.5866 140.24 2.87711C140.045 2.84917 139.821 2.84917 139.626 2.84917C138.229 3.5475 136.888 4.24582 135.659 5.00001ZM150.687 11.3129L140.687 17.067C140.464 19.4972 140.184 22.0391 140.017 23.6313C140.659 23.771 141.218 23.8548 141.804 23.8827C145.855 21.5643 150.939 19.162 150.939 13.1006C150.911 12.514 150.827 11.9274 150.687 11.3129ZM150.352 10.3073C150.101 9.60895 149.71 8.93856 149.263 8.35197L140.966 13.1285C140.883 14.162 140.827 15.0559 140.771 15.8101L150.352 10.3073ZM148.648 7.51398C146.749 5.25141 143.899 3.60336 141.358 3.0447C141.358 6.03353 141.218 8.93856 141.078 11.8715L148.648 7.51398Z" fill="#0D0259"/>
<path d="M165.296 1.78772C170.296 1.78772 177.81 6.89945 177.81 13.1006C177.81 19.7207 172.363 22.4022 167.866 24.9721C162.363 24.8045 154.458 19.9441 154.458 13.6592C154.458 7.54191 159.57 4.66481 165.296 1.78772ZM159.346 20.4469C159.737 17.2067 160.212 13.1285 160.268 5.7542C157.503 7.68157 155.603 10.0559 155.603 13.6313C155.603 16.257 157.196 18.6313 159.346 20.4469ZM161.413 5.00001C161.385 13.4358 160.771 18.0447 160.436 21.257C161.777 22.1788 163.257 22.8771 164.682 23.324C165.101 19.2738 165.911 10.5866 165.994 2.87711C165.799 2.84917 165.575 2.84917 165.38 2.84917C163.983 3.5475 162.642 4.24582 161.413 5.00001ZM176.469 11.3129L166.469 17.067C166.246 19.4972 165.966 22.0391 165.799 23.6313C166.441 23.771 167 23.8548 167.587 23.8827C171.637 21.5643 176.721 19.162 176.721 13.1006C176.693 12.514 176.581 11.9274 176.469 11.3129ZM176.106 10.3073C175.855 9.60895 175.464 8.93856 175.017 8.35197L166.721 13.1285C166.637 14.162 166.581 15.0559 166.525 15.8101L176.106 10.3073ZM174.402 7.51398C172.503 5.25141 169.654 3.60336 167.112 3.0447C167.112 6.03353 166.972 8.93856 166.832 11.8715L174.402 7.51398Z" fill="#0D0259"/>
<path d="M181.804 0.782123C180.603 1.59218 179.849 2.17877 179.849 2.96089C179.849 3.65922 180.492 3.74302 181.33 3.74302H191.162C198.285 3.74302 202.642 8.04469 202.642 13.6592C202.642 15.9777 202.168 17.6536 201.721 18.9944C198.927 21.3128 195.883 23.0447 191.665 24.9721C189.151 24.0782 184.682 22.8212 181.609 22.8212C180.631 22.8212 179.989 23.2961 179.318 24.3017L178.453 23.5754C179.821 21.1173 184.011 17.8492 186.162 16.3966C183.145 16.0894 180.827 14.581 180.827 12.067C180.827 8.96648 184.067 6.39665 186.302 4.77654H181.33C179.29 4.77654 178.704 4.05028 178.704 3.04469C178.704 1.78771 179.682 1.06145 181.134 0L181.804 0.782123ZM187.307 22.6257V16.7598C185.603 17.905 182.978 20.0279 181.162 21.8715C181.33 21.8436 181.469 21.8436 181.637 21.8436C183.369 21.8436 185.324 22.1788 187.307 22.6257ZM187.307 15.5307V5.2514C185.184 6.75978 182.028 9.10614 182.028 12.067C182 14.2458 184.374 15.4749 187.307 15.5307ZM190.911 23.6592V4.77654H188.453V22.905C189.318 23.1564 190.184 23.4358 190.911 23.6592ZM192.168 23.6034C195.687 21.9832 198.48 20.2793 200.799 18.352C201.19 17.1788 201.497 15.6983 201.497 13.6872C201.497 8.77095 197.866 5.13966 192.056 4.80447V23.6592L192.168 23.6034Z" fill="#0D0259"/>
<path d="M209.587 20.9218C210.006 17.905 210.508 14.8045 210.564 7.6257C207.687 9.60894 205.145 11.7318 205.145 13.6592C205.145 16.3408 207.212 19.1341 209.587 20.9218ZM216.43 3.77095C215.006 4.72067 213.33 5.81005 211.709 6.81564C211.709 14.9162 211.039 18.4078 210.676 21.648C212.101 22.5698 213.525 23.2402 214.978 23.6033C215.397 20.0838 216.263 11.8156 216.43 3.77095ZM221.709 9.80447L217.073 13.7151C216.793 17.4022 216.458 20.6425 216.095 23.8547C216.374 23.9106 216.709 23.9385 216.989 23.9944C220.313 22.7654 224.615 20.1397 226.793 18.1285C227.045 17.1508 227.101 16.3966 227.101 15.5866C227.101 12.7095 224.838 10.4749 221.709 9.80447ZM222.631 9.02234C225.872 9.94413 228.246 12.4581 228.246 15.5866C228.246 16.4804 228.022 17.3743 227.687 18.7151C225.648 20.7821 220.872 23.7709 217.38 24.9441C212.101 24.9721 204 19.8603 204 13.6592C204 9.9162 211.542 5.75419 216.43 2.5419V0.642456H217.575V2.4581C219.196 3.15642 221.877 4.35754 222.771 4.63687C223.665 4.94413 224.335 5.11173 225.089 5.11173C225.48 5.11173 225.899 4.88827 226.43 4.46927L227.883 3.24022L228.497 4.13408L226.905 5.41899L224.67 5.94972C224.056 6.00558 223.274 5.92178 222.38 5.55866C221.57 5.25139 219.168 4.18994 217.575 3.49162C217.547 6.42458 217.408 9.4134 217.184 12.2905L221.235 8.82681L222.631 9.02234Z" fill="#0D0259"/>
<path d="M241.542 1.78772C246.542 1.78772 254.056 6.89945 254.056 13.1006C254.056 19.7207 248.609 22.4022 244.112 24.9721C238.609 24.8045 230.704 19.9441 230.704 13.6592C230.704 7.54191 235.816 4.66481 241.542 1.78772ZM235.592 20.4469C235.983 17.2067 236.458 13.1285 236.514 5.7542C233.749 7.68157 231.849 10.0559 231.849 13.6313C231.849 16.257 233.441 18.6313 235.592 20.4469ZM237.659 5.00001C237.631 13.4358 237.017 18.0447 236.682 21.257C238.022 22.1788 239.503 22.8771 240.927 23.324C241.346 19.2738 242.156 10.5866 242.24 2.87711C242.045 2.84917 241.821 2.84917 241.626 2.84917C240.229 3.5475 238.888 4.24582 237.659 5.00001ZM252.687 11.3129L242.687 17.067C242.464 19.4972 242.184 22.0391 242.017 23.6313C242.659 23.771 243.218 23.8548 243.804 23.8827C247.855 21.5643 252.939 19.162 252.939 13.1006C252.911 12.514 252.827 11.9274 252.687 11.3129ZM252.352 10.3073C252.101 9.60895 251.71 8.93856 251.263 8.35197L242.966 13.1285C242.883 14.162 242.827 15.0559 242.771 15.8101L252.352 10.3073ZM250.648 7.51398C248.749 5.25141 245.899 3.60336 243.358 3.0447C243.358 6.03353 243.218 8.93856 243.078 11.8715L250.648 7.51398Z" fill="#0D0259"/>
<path d="M267.296 1.78772C272.296 1.78772 279.81 6.89945 279.81 13.1006C279.81 19.7207 274.363 22.4022 269.866 24.9721C264.363 24.8045 256.458 19.9441 256.458 13.6592C256.458 7.54191 261.57 4.66481 267.296 1.78772ZM261.346 20.4469C261.737 17.2067 262.212 13.1285 262.268 5.7542C259.503 7.68157 257.603 10.0559 257.603 13.6313C257.603 16.257 259.196 18.6313 261.346 20.4469ZM263.413 5.00001C263.385 13.4358 262.771 18.0447 262.436 21.257C263.777 22.1788 265.257 22.8771 266.682 23.324C267.101 19.2738 267.911 10.5866 267.994 2.87711C267.799 2.84917 267.575 2.84917 267.38 2.84917C265.983 3.5475 264.642 4.24582 263.413 5.00001ZM278.469 11.3129L268.469 17.067C268.246 19.4972 267.967 22.0391 267.799 23.6313C268.441 23.771 269 23.8548 269.587 23.8827C273.637 21.5643 278.721 19.162 278.721 13.1006C278.693 12.514 278.581 11.9274 278.469 11.3129ZM278.106 10.3073C277.855 9.60895 277.464 8.93856 277.017 8.35197L268.721 13.1285C268.637 14.162 268.581 15.0559 268.525 15.8101L278.106 10.3073ZM276.402 7.51398C274.503 5.25141 271.654 3.60336 269.112 3.0447C269.112 6.03353 268.972 8.93856 268.832 11.8715L276.402 7.51398Z" fill="#0D0259"/>
<path d="M283.804 0.782123C282.603 1.59218 281.849 2.17877 281.849 2.96089C281.849 3.65922 282.492 3.74302 283.33 3.74302H293.162C300.285 3.74302 304.642 8.04469 304.642 13.6592C304.642 15.9777 304.168 17.6536 303.721 18.9944C300.927 21.3128 297.883 23.0447 293.665 24.9721C291.151 24.0782 286.682 22.8212 283.609 22.8212C282.631 22.8212 281.989 23.2961 281.318 24.3017L280.453 23.5754C281.821 21.1173 286.011 17.8492 288.162 16.3966C285.145 16.0894 282.827 14.581 282.827 12.067C282.827 8.96648 286.067 6.39665 288.302 4.77654H283.33C281.29 4.77654 280.704 4.05028 280.704 3.04469C280.704 1.78771 281.682 1.06145 283.134 0L283.804 0.782123ZM289.307 22.6257V16.7598C287.603 17.905 284.978 20.0279 283.162 21.8715C283.33 21.8436 283.469 21.8436 283.637 21.8436C285.369 21.8436 287.324 22.1788 289.307 22.6257ZM289.307 15.5307V5.2514C287.184 6.75978 284.028 9.10614 284.028 12.067C284 14.2458 286.374 15.4749 289.307 15.5307ZM292.911 23.6592V4.77654H290.453V22.905C291.318 23.1564 292.184 23.4358 292.911 23.6592ZM294.168 23.6034C297.687 21.9832 300.48 20.2793 302.799 18.352C303.19 17.1788 303.497 15.6983 303.497 13.6872C303.497 8.77095 299.866 5.13966 294.056 4.80447V23.6592L294.168 23.6034Z" fill="#0D0259"/>
</svg>
