<svg width="142" height="66" xmlns="http://www.w3.org/2000/svg" fill="none">
 <defs>
  <clipPath id="clip0_15:16">
   <rect id="svg_1" fill="white" height="100" width="280"/>
  </clipPath>
 </defs>
 <g>
  <title>Layer 1</title>
  <g stroke="null" id="svg_2" clip-path="url(#clip0_15:16)">
   <path stroke="null" id="svg_3" fill="#e7131a" d="m11.46562,15l0,0.71066l2.18985,0l-3.86009,26.79594l-3.4889,-26.79594l1.93005,0l0,-0.71066l-7.57172,0l0,0.71066l0.89079,0l4.63954,34.06974l3.34044,0l5.01069,-34.06974l1.29905,0l0,-0.71066l-4.37969,0l-0.00001,0z"/>
   <path stroke="null" id="svg_4" fill="#e7131a" d="m12.7275,49.02796l0,0.71067l4.23123,0l0,-0.71067l-2.04139,0l1.41045,-9.86559l4.89934,0l1.41039,9.86559l-1.93005,0l0,0.71067l7.57168,0l0,-0.71067l-0.89074,0l-5.01069,-34.02796l-3.34049,0l-5.01064,34.02796l-1.2991,0l0.00001,0zm3.74875,-10.70167l2.30119,-16.21972l2.30119,16.21972l-4.60238,0z"/>
   <path stroke="null" id="svg_5" fill="#e7131a" d="m36.7787,38.74431l3.2291,11.03609l2.7095,0l0,-34.06974l1.26194,0l0,-0.71066l-4.23123,0l0,0.71066l2.0785,0l0,23.61891l-7.34899,-24.32956l-5.79014,0l0,0.71066l1.29905,0l0,33.31731l-0.92786,0l0,0.75243l3.86004,0l0,-0.75243l-2.04139,0l0,-30.26566l5.90148,19.98201z"/>
   <path stroke="null" id="svg_6" fill="#e7131a" d="m44.90714,49.02796l0,0.75243l7.31187,0l0,-0.75243l-1.26199,0l0,-33.31731l1.26199,0l0,-0.71066l-7.31187,0l0,0.71066l1.26194,0l0,33.31731l-1.26194,0z"/>
   <path stroke="null" id="svg_7" fill="#e7131a" d="m56.85855,49.02796l0,0.75243l7.57193,0l0,-0.75243l-1.41055,0l0,-33.31731l2.7093,0l1.78169,9.69838l0.77955,0l0,-10.40904l-15.18062,0l0,10.40904l0.66826,0l1.78119,-9.69838l2.7098,0l0,33.31731l-1.41055,0z"/>
   <path stroke="null" id="svg_8" fill="#e7131a" d="m72.81872,49.02796l0,0.75243l7.57142,0l0,-0.75243l-1.41004,0l0,-15.34186l3.60014,-17.97544l1.1507,0l0,-0.71066l-4.12034,0l0,0.71066l2.07881,0l-3.229,15.80167l-4.11984,-15.80167l2.0783,0l0,-0.71066l-7.60869,0l0,0.71066l0.89084,0l4.52775,17.97544l0,15.34186l-1.41004,0l-0.00001,0z"/>
   <path stroke="null" id="svg_9" fill="#e7131a" d="m88.11013,49.02796l0,0.75243l7.98034,0l0,-0.75243l-1.93025,0l0,-16.93038l2.93238,0l0.92761,4.34754l0.63099,0l0,-9.57299l-0.63099,0l-0.92761,4.3476l-2.93238,0l0,-15.50907l4.49098,0l2.04154,8.40246l0.66826,0l0,-9.11312l-13.25087,0l0,0.71066l1.29925,0l0,33.31731l-1.29925,0z"/>
   <path stroke="null" id="svg_10" fill="#e7131a" d="m99.43075,49.02796l0,0.71067l4.23164,0l0,-0.71067l-2.04154,0l1.41055,-9.86559l4.89939,0l1.41004,9.86559l-1.92974,0l0,0.71067l7.57142,0l0,-0.71067l-0.89084,0l-5.01069,-34.02796l-3.34029,0l-5.01069,34.02796l-1.29925,0l0,0zm3.71194,-10.70167l2.30089,-16.21972l2.30139,16.21972l-4.60228,0z"/>
   <path stroke="null" id="svg_11" fill="#e7131a" d="m115.76206,49.02796l0,0.75243l7.20028,0l0,-0.75243l-1.29925,0l0,-33.31731l1.29925,0l0,-0.71066l-7.20028,0l0,0.71066l1.26199,0l0,33.31731l-1.26199,0z"/>
   <path stroke="null" id="svg_12" fill="#e7131a" d="m124.00174,49.02796l0,0.71067l7.83178,0l0,-0.71067l-1.93025,0l0,-15.92712l1.41055,0l4.37969,16.63778l5.64168,0l0,-0.71067l-0.89084,0l-4.89939,-17.39022c1.0394,-0.58525 3.85999,-2.59179 3.85999,-7.52463c0,-6.35409 -3.71143,-9.11312 -8.75938,-9.11312l-6.82914,0l0,0.71066l1.29875,0l0,33.31731l-1.11343,0l-0.00001,0.00001zm6.68108,-33.15009c2.30139,0 3.97128,1.2959 3.97128,7.10655l0,2.71725c0,4.93279 -1.1507,6.64673 -3.71143,6.64673l-1.0394,0l0,-16.47054l0.77955,0l0,0.00001z"/>
  </g>
 </g>
</svg>