<svg width="24" height="24" viewBox="0 0 24 24" fill="none" xmlns="http://www.w3.org/2000/svg">
<path fill-rule="evenodd" clip-rule="evenodd" d="M2.4 0H21.6C22.9255 0 24 1.07452 24 2.4V21.6C24 22.9255 22.9255 24 21.6 24H2.4C1.07452 24 0 22.9255 0 21.6V2.4C0 1.07452 1.07452 0 2.4 0ZM2.4 2.4V21.6H21.6V2.4H2.4ZM10.9597 12.0053H13.2V19.2H15.6V12.0053H17.9789V9.60528H15.6V8.4C15.6 7.73726 16.1372 7.2 16.8 7.2H18V4.8H16.8C14.8117 4.8 13.2 6.41178 13.2 8.4V9.60528H10.9597V12.0053Z" fill="#ffffff"/>
</svg>
