<svg width="24" height="24" viewBox="0 0 24 24" fill="none" xmlns="http://www.w3.org/2000/svg">
<path fill-rule="evenodd" clip-rule="evenodd" d="M16.8 0H7.2C3.22355 0 0 3.22355 0 7.2V16.8C0 20.7765 3.22355 24 7.2 24H16.8C20.7765 24 24 20.7765 24 16.8V7.2C24 3.22355 20.7765 0 16.8 0ZM2.4 7.2C2.4 4.54903 4.54903 2.4 7.2 2.4H16.8C19.451 2.4 21.6 4.54903 21.6 7.2V16.8C21.6 19.451 19.451 21.6 16.8 21.6H7.2C4.54903 21.6 2.4 19.451 2.4 16.8V7.2ZM12 18C8.68629 18 6 15.3137 6 12C6 8.68629 8.68629 6 12 6C15.3137 6 18 8.68629 18 12C18 15.3137 15.3137 18 12 18ZM12 15.6C13.9882 15.6 15.6 13.9882 15.6 12C15.6 10.0118 13.9882 8.4 12 8.4C10.0118 8.4 8.4 10.0118 8.4 12C8.4 13.9882 10.0118 15.6 12 15.6ZM19.2 6C19.2 6.66274 18.6627 7.2 18 7.2C17.3373 7.2 16.8 6.66274 16.8 6C16.8 5.33726 17.3373 4.8 18 4.8C18.6627 4.8 19.2 5.33726 19.2 6Z" fill="#FA442D80"/>
</svg>
