<svg width="23" height="28" viewBox="0 0 23 28" fill="none" xmlns="http://www.w3.org/2000/svg">
<path fill-rule="evenodd" clip-rule="evenodd" d="M11.2865 28L12.1113 27.2798C19.0475 21.2233 22.573 15.935 22.573 11.2865C22.573 4.70354 17.4351 0 11.2865 0C5.13793 0 0 4.70354 0 11.2865C0 15.935 3.52553 21.2233 10.4617 27.2798L11.2865 28ZM15.4829 10.7898L14.2546 8.33333H5.33333V14.3333H6.1138C6.38836 13.5565 7.12919 13 8 13C8.87081 13 9.61164 13.5565 9.8862 14.3333H12.7805C13.055 13.5565 13.7959 13 14.6667 13C15.5375 13 16.2783 13.5565 16.5529 14.3333H17.3333V12.0235L15.4829 10.7898ZM16.5529 15.6667H17.3333C18.0697 15.6667 18.6667 15.0697 18.6667 14.3333V11.3099L16.5171 9.87684L15.4472 7.73705C15.2214 7.28534 14.7597 7 14.2546 7H5.33333C4.59695 7 4 7.59695 4 8.33333V14.3333C4 15.0697 4.59695 15.6667 5.33333 15.6667H6.1138C6.38836 16.4435 7.12919 17 8 17C8.87081 17 9.61164 16.4435 9.8862 15.6667H12.7805C13.055 16.4435 13.7959 17 14.6667 17C15.5375 17 16.2783 16.4435 16.5529 15.6667ZM8 15.6667C8.36819 15.6667 8.66667 15.3682 8.66667 15C8.66667 14.6318 8.36819 14.3333 8 14.3333C7.63181 14.3333 7.33333 14.6318 7.33333 15C7.33333 15.3682 7.63181 15.6667 8 15.6667ZM14.6667 15.6667C15.0349 15.6667 15.3333 15.3682 15.3333 15C15.3333 14.6318 15.0349 14.3333 14.6667 14.3333C14.2985 14.3333 14 14.6318 14 15C14 15.3682 14.2985 15.6667 14.6667 15.6667Z" fill="#29335C"/>
</svg>
