<svg width="23" height="28" viewBox="0 0 23 28" fill="none" xmlns="http://www.w3.org/2000/svg">
<path fill-rule="evenodd" clip-rule="evenodd" d="M11.2865 28L12.1113 27.2798C19.0475 21.2233 22.573 15.935 22.573 11.2865C22.573 4.70354 17.4351 0 11.2865 0C5.13793 0 0 4.70354 0 11.2865C0 15.935 3.52553 21.2233 10.4617 27.2798L11.2865 28ZM13.1036 13.3078C12.9556 13.3182 12.8077 13.2845 12.6787 13.2109C12.5057 13.1122 12.379 12.949 12.3264 12.7571C12.2737 12.5652 12.2995 12.3603 12.3981 12.1876C12.4715 12.0587 12.5816 11.9546 12.7144 11.8884C12.8471 11.8221 12.9966 11.7968 13.1439 11.8154C13.2912 11.8341 13.4297 11.896 13.5418 11.9933C13.654 12.0906 13.7348 12.2189 13.7741 12.362C13.8133 12.5051 13.8092 12.6566 13.7623 12.7973C13.7154 12.938 13.6278 13.0616 13.5106 13.1525C13.3933 13.2433 13.2517 13.2974 13.1036 13.3078ZM11.4392 16.2258C11.2912 16.2362 11.1433 16.2025 11.0143 16.1289C10.8413 16.0303 10.7146 15.867 10.662 15.6751C10.6093 15.4832 10.6351 15.2783 10.7337 15.1056C10.8071 14.9768 10.9172 14.8726 11.05 14.8064C11.1827 14.7402 11.3322 14.7148 11.4795 14.7335C11.6268 14.7521 11.7653 14.814 11.8774 14.9113C11.9896 15.0086 12.0704 15.1369 12.1097 15.28C12.1489 15.4231 12.1448 15.5746 12.0979 15.7153C12.051 15.856 11.9634 15.9796 11.8462 16.0705C11.7289 16.1614 11.5873 16.2154 11.4392 16.2258ZM10.0512 13.6002C9.85926 13.6526 9.65424 13.6266 9.48127 13.528C9.30831 13.4293 9.18157 13.2661 9.12894 13.0742C9.07631 12.8823 9.10209 12.6774 9.20063 12.5047L9.57214 11.8533C9.67068 11.6806 9.83388 11.5541 10.0259 11.5017C10.2178 11.4493 10.4229 11.4753 10.5958 11.574C10.7688 11.6726 10.8955 11.8358 10.9482 12.0278C11.0008 12.2197 10.975 12.4245 10.8765 12.5973L10.505 13.2486C10.4064 13.4214 10.2432 13.5479 10.0512 13.6002ZM3.99783 11.9595C3.7588 11.7801 3.55782 11.5551 3.40658 11.2975L3.40006 11.2938C3.11153 10.7866 3.0312 10.1874 3.17598 9.62266C3.32076 9.05788 3.67935 8.57156 4.17618 8.26621C6.28925 7.01088 8.69768 6.33702 11.1569 6.31306C13.6162 6.28909 16.0387 6.91587 18.1786 8.12976L18.5568 8.34551C19.0589 8.64988 19.4224 9.13799 19.5699 9.70588C19.7174 10.2738 19.6373 10.8765 19.3466 11.3858C19.1214 11.7949 18.7718 12.1218 18.3485 12.3193C17.9251 12.5169 17.4497 12.575 16.9909 12.4851L12.098 21.0633C12.032 21.1786 11.9364 21.2743 11.8212 21.3405C11.706 21.4067 11.5752 21.4412 11.4422 21.4403C11.3104 21.4409 11.1808 21.4068 11.0663 21.3415C10.9518 21.2762 10.8565 21.182 10.79 21.0683L5.71774 12.3827C5.4121 12.4347 5.0988 12.4208 4.79883 12.342C4.50914 12.2688 4.23685 12.1388 3.99783 11.9595ZM7.10781 11.7944L11.4364 19.1925L15.6234 11.8518C14.3071 11.1758 12.8506 10.8183 11.3714 10.8083C9.89211 10.7984 8.43163 11.1361 7.10781 11.7944ZM11.3616 7.80995C9.10419 7.79821 6.8868 8.40031 4.94686 9.55178L4.94034 9.54806C4.77758 9.65612 4.66349 9.82344 4.62237 10.0144C4.58124 10.2054 4.61632 10.4049 4.72013 10.5706C4.82208 10.7383 4.98566 10.8595 5.17582 10.9082C5.26612 10.9348 5.36095 10.9422 5.45423 10.93C5.54752 10.9178 5.63721 10.8862 5.71755 10.8374C7.37163 9.85073 9.2587 9.32103 11.1858 9.30242C13.113 9.2838 15.011 9.77694 16.686 10.7314L17.0186 10.9211C17.1882 11.0192 17.3893 11.0472 17.5791 10.9991C17.6764 10.9737 17.7675 10.9289 17.8471 10.8675C17.9266 10.8061 17.993 10.7293 18.0423 10.6418C18.1408 10.469 18.1666 10.2642 18.114 10.0723C18.0613 9.88034 17.9346 9.7171 17.7616 9.61845C15.8313 8.44684 13.6189 7.82169 11.3616 7.80995Z" fill="#29335C"/>
</svg>
