<svg width="24" height="24" viewBox="0 0 24 24" fill="none" xmlns="http://www.w3.org/2000/svg">
<path d="M8.51009 12.48C8.31231 12.48 8.11897 12.5387 7.95452 12.6485C7.79007 12.7584 7.6619 12.9146 7.58621 13.0973C7.51052 13.2801 7.49072 13.4811 7.5293 13.6751C7.56789 13.8691 7.66313 14.0473 7.80298 14.1871C7.94283 14.327 8.12102 14.4222 8.315 14.4608C8.50898 14.4994 8.71005 14.4796 8.89277 14.4039C9.0755 14.3282 9.23168 14.2 9.34156 14.0356C9.45144 13.8711 9.51009 13.6778 9.51009 13.48C9.51009 13.2148 9.40473 12.9604 9.2172 12.7729C9.02966 12.5854 8.77531 12.48 8.51009 12.48ZM8.51009 8.00001C8.31231 8.00001 8.11897 8.05866 7.95452 8.16854C7.79007 8.27842 7.6619 8.4346 7.58621 8.61732C7.51052 8.80005 7.49072 9.00112 7.5293 9.1951C7.56789 9.38908 7.66313 9.56726 7.80298 9.70711C7.94283 9.84697 8.12102 9.94221 8.315 9.98079C8.50898 10.0194 8.71005 9.99957 8.89277 9.92389C9.0755 9.8482 9.23168 9.72003 9.34156 9.55558C9.45144 9.39113 9.51009 9.19779 9.51009 9.00001C9.51009 8.73479 9.40473 8.48044 9.2172 8.2929C9.02966 8.10536 8.77531 8.00001 8.51009 8.00001ZM12.0001 10C11.7349 10 11.4805 10.1054 11.293 10.2929C11.1054 10.4804 11.0001 10.7348 11.0001 11V12C11.0001 12.2652 11.1054 12.5196 11.293 12.7071C11.4805 12.8947 11.7349 13 12.0001 13C12.2653 13 12.5197 12.8947 12.7072 12.7071C12.8947 12.5196 13.0001 12.2652 13.0001 12V11C13.0001 10.7348 12.8947 10.4804 12.7072 10.2929C12.5197 10.1054 12.2653 10 12.0001 10ZM20.5001 8.57001C20.1551 8.37152 19.7741 8.24366 19.3792 8.19387C18.9844 8.14408 18.5835 8.17336 18.2001 8.28001C17.801 8.3869 17.4294 8.57783 17.1101 8.84001L5.51009 2.13001C5.35807 2.04224 5.18563 1.99603 5.01009 1.99603C4.83455 1.99603 4.66211 2.04224 4.51009 2.13001C4.35562 2.21683 4.227 2.34314 4.13739 2.49601C4.04778 2.64888 4.00039 2.82281 4.00009 3.00001V16.17C3.40994 16.3691 2.89826 16.7504 2.53881 17.259C2.17936 17.7676 1.99072 18.3773 2.00009 19C1.99981 19.782 2.30488 20.5332 2.8503 21.0935C3.39572 21.6539 4.13839 21.9792 4.92009 22H5.50009C8.77683 21.9923 11.9932 21.1177 14.8226 19.465C17.652 17.8123 19.9938 15.4404 21.6101 12.59C21.9834 11.908 22.0773 11.1077 21.8721 10.3578C21.6669 9.60789 21.1786 8.96693 20.5101 8.57001H20.5001ZM6.00009 4.73001L15.8901 10.44C14.7929 12.0772 13.3261 13.4335 11.6081 14.3993C9.89008 15.3651 7.96906 15.9135 6.00009 16V4.73001ZM19.8701 11.61C18.3855 14.2257 16.2175 16.3883 13.5981 17.8662C10.9787 19.3441 8.00657 20.0817 5.00009 20C4.73487 20 4.48052 19.8947 4.29298 19.7071C4.10545 19.5196 4.00009 19.2652 4.00009 19C3.99931 18.866 4.02546 18.7332 4.07699 18.6096C4.12853 18.4859 4.2044 18.3738 4.30009 18.28C4.48796 18.0989 4.73916 17.9984 5.00009 18H5.51009C8.07781 17.999 10.5992 17.3161 12.8165 16.0212C15.0338 14.7263 16.8675 12.8658 18.1301 10.63C18.1908 10.5203 18.2737 10.4245 18.3736 10.3487C18.4735 10.273 18.5881 10.2189 18.7101 10.19C18.9622 10.1208 19.2315 10.1531 19.4601 10.28C19.6895 10.4033 19.8618 10.6113 19.9402 10.8597C20.0187 11.1081 19.9971 11.3773 19.8801 11.61H19.8701Z" fill="#29335C"/>
</svg>
