<svg width="24" height="23" viewBox="0 0 24 23" fill="none" xmlns="http://www.w3.org/2000/svg">
<path fill-rule="evenodd" clip-rule="evenodd" d="M22.3464 2.93161L24 3.12471L23.2567 4.61433C22.8942 5.34076 22.5314 6.06717 22.1682 6.7936C22.1252 6.94746 22.0494 7.08234 21.9376 7.25795C21.8907 7.33132 21.7309 7.56474 21.7235 7.57594C21.6813 7.63921 21.6501 7.68912 21.6276 7.7291V10.5207C21.6276 17.6643 14.7143 22.2037 8.18557 22.2037C6.84963 22.2037 5.83461 22.1398 4.67236 21.8862C2.75966 21.4687 1.33623 20.6391 0.68487 19.189L0.0142736 17.6961L1.64399 17.5461C3.11831 17.4106 4.39658 17.1297 5.37823 16.7536C2.68324 16.3202 1.17299 15.1366 1.17299 12.9137V11.7449H2.34176C2.59855 11.7449 2.83011 11.7241 3.03711 11.6858C1.0145 10.4764 0.00142873 8.5365 0.00142873 5.84566C0.00120666 5.73098 0.00120666 5.73096 0.000517081 5.60834C-0.00707996 4.25204 0.0657699 3.52733 0.437067 2.60239C0.675018 2.00961 1.01898 1.46083 1.48189 0.958011L2.36386 0L3.22135 0.979984C6.04718 4.20948 8.84057 6.16874 11.6927 6.40573C11.7048 3.42574 13.9569 1.17055 16.9523 1.17055C18.3487 1.17055 19.6153 1.70058 20.6108 2.65631C21.1556 2.76826 21.7342 2.8601 22.3464 2.93161ZM19.7624 4.86447L19.4041 4.78333L19.1567 4.5118C18.5584 3.85527 17.8074 3.5081 16.9523 3.5081C15.2425 3.5081 14.0301 4.72643 14.0301 6.43005C14.0301 6.70847 14.023 6.88341 13.9883 7.11335C13.8499 8.03085 13.3353 8.7676 12.2769 8.7676C8.77292 8.7676 5.61172 6.89043 2.52911 3.68431C2.37019 4.1674 2.33282 4.66397 2.33803 5.59525C2.33874 5.7198 2.33874 5.7198 2.33898 5.84566C2.33898 8.23932 3.30873 9.54867 5.60483 10.2785L6.41956 10.5375V11.3923C6.41956 12.429 5.43741 13.4048 4.00035 13.8419C4.65911 14.3418 6.00634 14.6115 8.18598 14.6115H9.35477V15.7802C9.35477 17.4549 7.43064 18.766 4.52404 19.4507C5.47195 19.741 6.73409 19.8662 8.18557 19.8662C13.5788 19.8662 19.2901 16.116 19.2901 10.5207V7.59882C19.2901 7.25546 19.3896 6.95741 19.5549 6.64752C19.6197 6.52636 19.6908 6.41084 19.7786 6.2791C19.7952 6.2543 19.8566 6.16443 19.9053 6.09258L19.9979 5.90733C20.1481 5.60714 20.298 5.30696 20.448 5.00677C20.2149 4.96261 19.9864 4.91518 19.7624 4.86447Z" fill="#FA442D80"/>
</svg>
